<?xml version="1.0" encoding="UTF-8" standalone="no"?><svg xmlns="http://www.w3.org/2000/svg" xmlns:xlink="http://www.w3.org/1999/xlink" contentScriptType="application/ecmascript" contentStyleType="text/css" height="200px" preserveAspectRatio="none" style="width:276px;height:200px;background:#FFFFFF;" version="1.1" viewBox="0 0 276 200" width="276px" zoomAndPan="magnify"><defs/><g><rect fill="none" height="26.7999" style="stroke:none;stroke-width:1.0;" width="80" x="63.5" y="5"/><text fill="#000000" font-family="sans-serif" font-size="14" font-weight="bold" lengthAdjust="spacing" textLength="70" x="68.5" y="23.9999">SAE S1.05</text><text fill="#000000" font-family="Serif" font-size="10" lengthAdjust="spacing" textLength="10" x="5" y="63.7999">38</text><text fill="#000000" font-family="Serif" font-size="10" lengthAdjust="spacing" textLength="10" x="33" y="63.7999">39</text><text fill="#000000" font-family="Serif" font-size="10" lengthAdjust="spacing" textLength="10" x="61" y="63.7999">40</text><text fill="#000000" font-family="Serif" font-size="10" lengthAdjust="spacing" textLength="10" x="89" y="63.7999">41</text><text fill="#000000" font-family="Serif" font-size="10" lengthAdjust="spacing" textLength="10" x="117" y="63.7999">42</text><text fill="#000000" font-family="Serif" font-size="10" lengthAdjust="spacing" textLength="10" x="145" y="63.7999">43</text><text fill="#000000" font-family="Serif" font-size="10" lengthAdjust="spacing" textLength="10" x="173" y="63.7999">44</text><text fill="#000000" font-family="Serif" font-size="10" lengthAdjust="spacing" textLength="10" x="201" y="63.7999">45</text><line style="stroke:#C0C0C0;stroke-width:1.0;" x1="0" x2="0" y1="53.7999" y2="182.7994"/><line style="stroke:#C0C0C0;stroke-width:1.0;" x1="28" x2="28" y1="53.7999" y2="182.7994"/><line style="stroke:#C0C0C0;stroke-width:1.0;" x1="56" x2="56" y1="53.7999" y2="182.7994"/><line style="stroke:#C0C0C0;stroke-width:1.0;" x1="84" x2="84" y1="53.7999" y2="182.7994"/><line style="stroke:#C0C0C0;stroke-width:1.0;" x1="112" x2="112" y1="53.7999" y2="182.7994"/><line style="stroke:#C0C0C0;stroke-width:1.0;" x1="140" x2="140" y1="53.7999" y2="182.7994"/><line style="stroke:#C0C0C0;stroke-width:1.0;" x1="168" x2="168" y1="53.7999" y2="182.7994"/><line style="stroke:#C0C0C0;stroke-width:1.0;" x1="196" x2="196" y1="53.7999" y2="182.7994"/><line style="stroke:#C0C0C0;stroke-width:1.0;" x1="208" x2="208" y1="53.7999" y2="182.7994"/><line style="stroke:#C0C0C0;stroke-width:1.0;" x1="0" x2="0" y1="37.7999" y2="53.7999"/><line style="stroke:#C0C0C0;stroke-width:1.0;" x1="44" x2="44" y1="37.7999" y2="53.7999"/><text fill="#000000" font-family="Serif" font-size="12" font-weight="bold" lengthAdjust="spacing" textLength="19" x="12.5" y="49.8">Sep</text><line style="stroke:#C0C0C0;stroke-width:1.0;" x1="168" x2="168" y1="37.7999" y2="53.7999"/><text fill="#000000" font-family="Serif" font-size="12" font-weight="bold" lengthAdjust="spacing" textLength="45" x="83.5" y="49.8">Oct 2021</text><line style="stroke:#C0C0C0;stroke-width:1.0;" x1="208" x2="208" y1="37.7999" y2="53.7999"/><text fill="#000000" font-family="Serif" font-size="12" font-weight="bold" lengthAdjust="spacing" textLength="21" x="177.5" y="49.8">Nov</text><line style="stroke:#C0C0C0;stroke-width:1.0;" x1="0" x2="208" y1="37.7999" y2="37.7999"/><line style="stroke:#C0C0C0;stroke-width:1.0;" x1="0" x2="208" y1="53.7999" y2="53.7999"/><line style="stroke:#C0C0C0;stroke-width:1.0;" x1="0" x2="208" y1="66.7999" y2="66.7999"/><line style="stroke:#A80036;stroke-width:1.5;" x1="47" x2="47" y1="115.1997" y2="125.7997"/><line style="stroke:#A80036;stroke-width:1.5;" x1="47" x2="55" y1="125.7997" y2="125.7997"/><polygon fill="#A80036" points="51,121.7997,51,125.7997,51,129.7997,55,125.7997" style="stroke:#A80036;stroke-width:1.5;"/><line style="stroke:#A80036;stroke-width:1.5;" x1="75" x2="75" y1="132.3996" y2="142.9996"/><line style="stroke:#A80036;stroke-width:1.5;" x1="75" x2="83" y1="142.9996" y2="142.9996"/><polygon fill="#A80036" points="79,138.9996,79,142.9996,79,146.9996,83,142.9996" style="stroke:#A80036;stroke-width:1.5;"/><line style="stroke:#A80036;stroke-width:1.5;" x1="131" x2="131" y1="149.5995" y2="160.1995"/><line style="stroke:#A80036;stroke-width:1.5;" x1="131" x2="139" y1="160.1995" y2="160.1995"/><polygon fill="#A80036" points="135,156.1995,135,160.1995,135,164.1995,139,160.1995" style="stroke:#A80036;stroke-width:1.5;"/><line style="stroke:#000000;stroke-width:1.0;" x1="0" x2="5" y1="83.3999" y2="83.3999"/><line style="stroke:#000000;stroke-width:1.0;" x1="67" x2="207" y1="83.3999" y2="83.3999"/><rect fill="#FEFECE" height="13.1999" style="stroke:none;stroke-width:1.0;" width="52" x="2" y="101.9998"/><line style="stroke:#A80036;stroke-width:1.0;" x1="2" x2="54" y1="101.9998" y2="101.9998"/><line style="stroke:#A80036;stroke-width:1.0;" x1="2" x2="54" y1="115.1997" y2="115.1997"/><line style="stroke:#A80036;stroke-width:1.0;" x1="2" x2="2" y1="101.9998" y2="115.1997"/><line style="stroke:#A80036;stroke-width:1.0;" x1="54" x2="54" y1="101.9998" y2="115.1997"/><rect fill="#FEFECE" height="13.1999" style="stroke:none;stroke-width:1.0;" width="24" x="58" y="119.1997"/><line style="stroke:#A80036;stroke-width:1.0;" x1="58" x2="82" y1="119.1997" y2="119.1997"/><line style="stroke:#A80036;stroke-width:1.0;" x1="58" x2="82" y1="132.3996" y2="132.3996"/><line style="stroke:#A80036;stroke-width:1.0;" x1="58" x2="58" y1="119.1997" y2="132.3996"/><line style="stroke:#A80036;stroke-width:1.0;" x1="82" x2="82" y1="119.1997" y2="132.3996"/><rect fill="#FEFECE" height="13.1999" style="stroke:none;stroke-width:1.0;" width="52" x="86" y="136.3996"/><line style="stroke:#A80036;stroke-width:1.0;" x1="86" x2="138" y1="136.3996" y2="136.3996"/><line style="stroke:#A80036;stroke-width:1.0;" x1="86" x2="138" y1="149.5995" y2="149.5995"/><line style="stroke:#A80036;stroke-width:1.0;" x1="86" x2="86" y1="136.3996" y2="149.5995"/><line style="stroke:#A80036;stroke-width:1.0;" x1="138" x2="138" y1="136.3996" y2="149.5995"/><rect fill="#FEFECE" height="13.1999" style="stroke:none;stroke-width:1.0;" width="52" x="142" y="153.5995"/><line style="stroke:#A80036;stroke-width:1.0;" x1="142" x2="194" y1="153.5995" y2="153.5995"/><line style="stroke:#A80036;stroke-width:1.0;" x1="142" x2="194" y1="166.7994" y2="166.7994"/><line style="stroke:#A80036;stroke-width:1.0;" x1="142" x2="142" y1="153.5995" y2="166.7994"/><line style="stroke:#A80036;stroke-width:1.0;" x1="194" x2="194" y1="153.5995" y2="166.7994"/><polygon fill="#000000" points="206,170.7994,211,175.7994,206,180.7994,201,175.7994" style="stroke:#000000;stroke-width:1.0;"/><text fill="#000000" font-family="sans-serif" font-size="11" lengthAdjust="spacing" textLength="52" x="10" y="87.7998">SAE S1.05</text><text fill="#000000" font-family="sans-serif" font-size="11" lengthAdjust="spacing" textLength="61" x="58" y="112.9997">Organisation</text><text fill="#000000" font-family="sans-serif" font-size="11" lengthAdjust="spacing" textLength="36" x="86" y="130.1996">Recueil</text><text fill="#000000" font-family="sans-serif" font-size="11" lengthAdjust="spacing" textLength="44" x="142" y="147.3995">Synthèse</text><text fill="#000000" font-family="sans-serif" font-size="11" lengthAdjust="spacing" textLength="49" x="198" y="164.5995">Rédaction</text><text fill="#000000" font-family="sans-serif" font-size="11" lengthAdjust="spacing" textLength="60" x="214" y="180.1994">Présentation</text><line style="stroke:#C0C0C0;stroke-width:1.0;" x1="0" x2="208" y1="182.7994" y2="182.7994"/><line style="stroke:#C0C0C0;stroke-width:1.0;" x1="0" x2="0" y1="182.7994" y2="198.7994"/><line style="stroke:#C0C0C0;stroke-width:1.0;" x1="44" x2="44" y1="182.7994" y2="198.7994"/><text fill="#000000" font-family="Serif" font-size="12" font-weight="bold" lengthAdjust="spacing" textLength="19" x="12.5" y="194.7995">Sep</text><line style="stroke:#C0C0C0;stroke-width:1.0;" x1="168" x2="168" y1="182.7994" y2="198.7994"/><text fill="#000000" font-family="Serif" font-size="12" font-weight="bold" lengthAdjust="spacing" textLength="45" x="83.5" y="194.7995">Oct 2021</text><line style="stroke:#C0C0C0;stroke-width:1.0;" x1="208" x2="208" y1="182.7994" y2="198.7994"/><text fill="#000000" font-family="Serif" font-size="12" font-weight="bold" lengthAdjust="spacing" textLength="21" x="177.5" y="194.7995">Nov</text><line style="stroke:#C0C0C0;stroke-width:1.0;" x1="0" x2="208" y1="198.7994" y2="198.7994"/><!--MD5=[babd5e20928029de8a296b6314695860]
@startgantt

title SAE S1.05

printscale weekly

Project starts the 20th of September 2021


- - SAE S1.05 - -

[Organisation] lasts 2 weeks
then [Recueil] lasts 1 week
then [Synthèse] lasts 2 weeks
then [Rédaction] lasts 2 weeks

'[Présentation] happens at [Rédaction]'s end
[Présentation] happens the 10 November 2021

@endgantt

@startgantt

title SAE S1.05

printscale weekly

Project starts the 20th of September 2021


- - SAE S1.05 - -

[Organisation] lasts 2 weeks
then [Recueil] lasts 1 week
then [Synthèse] lasts 2 weeks
then [Rédaction] lasts 2 weeks

[Présentation] happens the 10 November 2021

@endgantt

PlantUML version 1.2021.8(Sat Jun 26 08:20:59 GMT 2021)
(GPL source distribution)
Java Runtime: OpenJDK Runtime Environment
JVM: OpenJDK 64-Bit Server VM
Default Encoding: UTF-8
Language: en
Country: US
--></g></svg>