<?xml version="1.0" encoding="UTF-8" standalone="no"?><svg xmlns="http://www.w3.org/2000/svg" xmlns:xlink="http://www.w3.org/1999/xlink" contentScriptType="application/ecmascript" contentStyleType="text/css" height="162px" preserveAspectRatio="none" style="width:276px;height:162px;background:#FFFFFF;" version="1.1" viewBox="0 0 276 162" width="276px" zoomAndPan="magnify"><defs/><g><text fill="#000000" font-family="Serif" font-size="10" lengthAdjust="spacing" textLength="10" x="5" y="26">38</text><text fill="#000000" font-family="Serif" font-size="10" lengthAdjust="spacing" textLength="10" x="33" y="26">39</text><text fill="#000000" font-family="Serif" font-size="10" lengthAdjust="spacing" textLength="10" x="61" y="26">40</text><text fill="#000000" font-family="Serif" font-size="10" lengthAdjust="spacing" textLength="10" x="89" y="26">41</text><text fill="#000000" font-family="Serif" font-size="10" lengthAdjust="spacing" textLength="10" x="117" y="26">42</text><text fill="#000000" font-family="Serif" font-size="10" lengthAdjust="spacing" textLength="10" x="145" y="26">43</text><text fill="#000000" font-family="Serif" font-size="10" lengthAdjust="spacing" textLength="10" x="173" y="26">44</text><text fill="#000000" font-family="Serif" font-size="10" lengthAdjust="spacing" textLength="10" x="201" y="26">45</text><line style="stroke:#C0C0C0;stroke-width:1.0;" x1="0" x2="0" y1="16" y2="144.9995"/><line style="stroke:#C0C0C0;stroke-width:1.0;" x1="28" x2="28" y1="16" y2="144.9995"/><line style="stroke:#C0C0C0;stroke-width:1.0;" x1="56" x2="56" y1="16" y2="144.9995"/><line style="stroke:#C0C0C0;stroke-width:1.0;" x1="84" x2="84" y1="16" y2="144.9995"/><line style="stroke:#C0C0C0;stroke-width:1.0;" x1="112" x2="112" y1="16" y2="144.9995"/><line style="stroke:#C0C0C0;stroke-width:1.0;" x1="140" x2="140" y1="16" y2="144.9995"/><line style="stroke:#C0C0C0;stroke-width:1.0;" x1="168" x2="168" y1="16" y2="144.9995"/><line style="stroke:#C0C0C0;stroke-width:1.0;" x1="196" x2="196" y1="16" y2="144.9995"/><line style="stroke:#C0C0C0;stroke-width:1.0;" x1="208" x2="208" y1="16" y2="144.9995"/><line style="stroke:#C0C0C0;stroke-width:1.0;" x1="0" x2="0" y1="0" y2="16"/><line style="stroke:#C0C0C0;stroke-width:1.0;" x1="44" x2="44" y1="0" y2="16"/><text fill="#000000" font-family="Serif" font-size="12" font-weight="bold" lengthAdjust="spacing" textLength="19" x="12.5" y="12.0001">Sep</text><line style="stroke:#C0C0C0;stroke-width:1.0;" x1="168" x2="168" y1="0" y2="16"/><text fill="#000000" font-family="Serif" font-size="12" font-weight="bold" lengthAdjust="spacing" textLength="45" x="83.5" y="12.0001">Oct 2021</text><line style="stroke:#C0C0C0;stroke-width:1.0;" x1="208" x2="208" y1="0" y2="16"/><text fill="#000000" font-family="Serif" font-size="12" font-weight="bold" lengthAdjust="spacing" textLength="21" x="177.5" y="12.0001">Nov</text><line style="stroke:#C0C0C0;stroke-width:1.0;" x1="0" x2="208" y1="0" y2="0"/><line style="stroke:#C0C0C0;stroke-width:1.0;" x1="0" x2="208" y1="16" y2="16"/><line style="stroke:#C0C0C0;stroke-width:1.0;" x1="0" x2="208" y1="29" y2="29"/><line style="stroke:#A80036;stroke-width:1.5;" x1="47" x2="47" y1="77.3998" y2="87.9998"/><line style="stroke:#A80036;stroke-width:1.5;" x1="47" x2="55" y1="87.9998" y2="87.9998"/><polygon fill="#A80036" points="51,83.9998,51,87.9998,51,91.9998,55,87.9998" style="stroke:#A80036;stroke-width:1.5;"/><line style="stroke:#A80036;stroke-width:1.5;" x1="75" x2="75" y1="94.5997" y2="105.1997"/><line style="stroke:#A80036;stroke-width:1.5;" x1="75" x2="83" y1="105.1997" y2="105.1997"/><polygon fill="#A80036" points="79,101.1997,79,105.1997,79,109.1997,83,105.1997" style="stroke:#A80036;stroke-width:1.5;"/><line style="stroke:#A80036;stroke-width:1.5;" x1="131" x2="131" y1="111.7996" y2="122.3996"/><line style="stroke:#A80036;stroke-width:1.5;" x1="131" x2="139" y1="122.3996" y2="122.3996"/><polygon fill="#A80036" points="135,118.3996,135,122.3996,135,126.3996,139,122.3996" style="stroke:#A80036;stroke-width:1.5;"/><line style="stroke:#000000;stroke-width:1.0;" x1="0" x2="5" y1="45.6" y2="45.6"/><line style="stroke:#000000;stroke-width:1.0;" x1="67" x2="207" y1="45.6" y2="45.6"/><rect fill="#FEFECE" height="13.1999" style="stroke:none;stroke-width:1.0;" width="52" x="2" y="64.1999"/><line style="stroke:#A80036;stroke-width:1.0;" x1="2" x2="54" y1="64.1999" y2="64.1999"/><line style="stroke:#A80036;stroke-width:1.0;" x1="2" x2="54" y1="77.3998" y2="77.3998"/><line style="stroke:#A80036;stroke-width:1.0;" x1="2" x2="2" y1="64.1999" y2="77.3998"/><line style="stroke:#A80036;stroke-width:1.0;" x1="54" x2="54" y1="64.1999" y2="77.3998"/><rect fill="#FEFECE" height="13.1999" style="stroke:none;stroke-width:1.0;" width="24" x="58" y="81.3998"/><line style="stroke:#A80036;stroke-width:1.0;" x1="58" x2="82" y1="81.3998" y2="81.3998"/><line style="stroke:#A80036;stroke-width:1.0;" x1="58" x2="82" y1="94.5997" y2="94.5997"/><line style="stroke:#A80036;stroke-width:1.0;" x1="58" x2="58" y1="81.3998" y2="94.5997"/><line style="stroke:#A80036;stroke-width:1.0;" x1="82" x2="82" y1="81.3998" y2="94.5997"/><rect fill="#FEFECE" height="13.1999" style="stroke:none;stroke-width:1.0;" width="52" x="86" y="98.5997"/><line style="stroke:#A80036;stroke-width:1.0;" x1="86" x2="138" y1="98.5997" y2="98.5997"/><line style="stroke:#A80036;stroke-width:1.0;" x1="86" x2="138" y1="111.7996" y2="111.7996"/><line style="stroke:#A80036;stroke-width:1.0;" x1="86" x2="86" y1="98.5997" y2="111.7996"/><line style="stroke:#A80036;stroke-width:1.0;" x1="138" x2="138" y1="98.5997" y2="111.7996"/><rect fill="#FEFECE" height="13.1999" style="stroke:none;stroke-width:1.0;" width="52" x="142" y="115.7996"/><line style="stroke:#A80036;stroke-width:1.0;" x1="142" x2="194" y1="115.7996" y2="115.7996"/><line style="stroke:#A80036;stroke-width:1.0;" x1="142" x2="194" y1="128.9995" y2="128.9995"/><line style="stroke:#A80036;stroke-width:1.0;" x1="142" x2="142" y1="115.7996" y2="128.9995"/><line style="stroke:#A80036;stroke-width:1.0;" x1="194" x2="194" y1="115.7996" y2="128.9995"/><polygon fill="#000000" points="206,132.9995,211,137.9995,206,142.9995,201,137.9995" style="stroke:#000000;stroke-width:1.0;"/><text fill="#000000" font-family="sans-serif" font-size="11" lengthAdjust="spacing" textLength="52" x="10" y="49.9999">SAE S1.05</text><text fill="#000000" font-family="sans-serif" font-size="11" lengthAdjust="spacing" textLength="61" x="58" y="75.1998">Organisation</text><text fill="#000000" font-family="sans-serif" font-size="11" lengthAdjust="spacing" textLength="36" x="86" y="92.3997">Recueil</text><text fill="#000000" font-family="sans-serif" font-size="11" lengthAdjust="spacing" textLength="44" x="142" y="109.5996">Synthèse</text><text fill="#000000" font-family="sans-serif" font-size="11" lengthAdjust="spacing" textLength="49" x="198" y="126.7995">Rédaction</text><text fill="#000000" font-family="sans-serif" font-size="11" lengthAdjust="spacing" textLength="60" x="214" y="142.3995">Présentation</text><line style="stroke:#C0C0C0;stroke-width:1.0;" x1="0" x2="208" y1="144.9995" y2="144.9995"/><line style="stroke:#C0C0C0;stroke-width:1.0;" x1="0" x2="0" y1="144.9995" y2="160.9995"/><line style="stroke:#C0C0C0;stroke-width:1.0;" x1="44" x2="44" y1="144.9995" y2="160.9995"/><text fill="#000000" font-family="Serif" font-size="12" font-weight="bold" lengthAdjust="spacing" textLength="19" x="12.5" y="156.9996">Sep</text><line style="stroke:#C0C0C0;stroke-width:1.0;" x1="168" x2="168" y1="144.9995" y2="160.9995"/><text fill="#000000" font-family="Serif" font-size="12" font-weight="bold" lengthAdjust="spacing" textLength="45" x="83.5" y="156.9996">Oct 2021</text><line style="stroke:#C0C0C0;stroke-width:1.0;" x1="208" x2="208" y1="144.9995" y2="160.9995"/><text fill="#000000" font-family="Serif" font-size="12" font-weight="bold" lengthAdjust="spacing" textLength="21" x="177.5" y="156.9996">Nov</text><line style="stroke:#C0C0C0;stroke-width:1.0;" x1="0" x2="208" y1="160.9995" y2="160.9995"/><!--MD5=[541859ddd0daee9e939573fa12586329]
@startgantt

printscale weekly

Project starts the 20th of September 2021


- - SAE S1.05 - -

[Organisation] lasts 2 weeks
then [Recueil] lasts 1 week
then [Synthèse] lasts 2 weeks
then [Rédaction] lasts 2 weeks

'[Présentation] happens at [Rédaction]'s end
[Présentation] happens the 10 November 2021

@endgantt

@startgantt

printscale weekly

Project starts the 20th of September 2021


- - SAE S1.05 - -

[Organisation] lasts 2 weeks
then [Recueil] lasts 1 week
then [Synthèse] lasts 2 weeks
then [Rédaction] lasts 2 weeks

[Présentation] happens the 10 November 2021

@endgantt

PlantUML version 1.2021.8(Sat Jun 26 08:20:59 GMT 2021)
(GPL source distribution)
Java Runtime: OpenJDK Runtime Environment
JVM: OpenJDK 64-Bit Server VM
Default Encoding: UTF-8
Language: en
Country: US
--></g></svg>