<?xml version="1.0" encoding="UTF-8" standalone="no"?><svg xmlns="http://www.w3.org/2000/svg" xmlns:xlink="http://www.w3.org/1999/xlink" contentScriptType="application/ecmascript" contentStyleType="text/css" height="528px" preserveAspectRatio="none" style="width:1463px;height:528px;background:#FFFFFF;" version="1.1" viewBox="0 0 1463 528" width="1463px" zoomAndPan="magnify"><defs><filter height="300%" id="f1bzoyts2t52md" width="300%" x="-1" y="-1"><feGaussianBlur result="blurOut" stdDeviation="2.0"/><feColorMatrix in="blurOut" result="blurOut2" type="matrix" values="0 0 0 0 0 0 0 0 0 0 0 0 0 0 0 0 0 0 .4 0"/><feOffset dx="4.0" dy="4.0" in="blurOut2" result="blurOut3"/><feBlend in="SourceGraphic" in2="blurOut3" mode="normal"/></filter></defs><g><text fill="#000000" font-family="sans-serif" font-size="18" lengthAdjust="spacing" textLength="112" x="669.24" y="17.9999">Info - S1 v.0.1</text><!--MD5=[c62305f8767b7297d71498ed93a07a0b]
entity r11--><rect fill="#FFFFE0" filter="url(#f1bzoyts2t52md)" height="53.5999" rx="35" ry="35" style="stroke:#000000;stroke-width:1.5;" width="122" x="349.98" y="164.5999"/><text fill="#000000" font-family="sans-serif" font-size="14" lengthAdjust="spacing" textLength="38" x="391.98" y="188.5998">R1.01</text><text fill="#000000" font-family="sans-serif" font-size="14" lengthAdjust="spacing" textLength="102" x="359.98" y="205.3997">Initiation au dev.</text><!--MD5=[97e12c4c35df3db615dd206260a1eae4]
entity r12--><rect fill="#FFFFE0" filter="url(#f1bzoyts2t52md)" height="53.5999" rx="35" ry="35" style="stroke:#000000;stroke-width:1.5;" width="141" x="746.48" y="28.5999"/><text fill="#000000" font-family="sans-serif" font-size="14" lengthAdjust="spacing" textLength="38" x="797.98" y="52.5998">R1.02</text><text fill="#000000" font-family="sans-serif" font-size="14" lengthAdjust="spacing" textLength="121" x="756.48" y="69.3997">Dev. interfaces web</text><!--MD5=[93d57ee199d382e6cba9586b5c9487cd]
entity r13--><rect fill="#FFFFE0" filter="url(#f1bzoyts2t52md)" height="53.5999" rx="35" ry="35" style="stroke:#000000;stroke-width:1.5;" width="91" x="296.48" y="28.5999"/><text fill="#000000" font-family="sans-serif" font-size="14" lengthAdjust="spacing" textLength="38" x="322.98" y="52.5998">R1.03</text><text fill="#000000" font-family="sans-serif" font-size="14" lengthAdjust="spacing" textLength="71" x="306.48" y="69.3997">Intro. archi.</text><!--MD5=[b9a4872f8bb942099c0de7666a35944b]
entity r14--><rect fill="#FFFFE0" filter="url(#f1bzoyts2t52md)" height="53.5999" rx="35" ry="35" style="stroke:#000000;stroke-width:1.5;" width="117" x="422.48" y="28.5999"/><text fill="#000000" font-family="sans-serif" font-size="14" lengthAdjust="spacing" textLength="38" x="461.98" y="52.5998">R1.04</text><text fill="#000000" font-family="sans-serif" font-size="14" lengthAdjust="spacing" textLength="93" x="432.48" y="69.3997">Intro. systèmes</text><!--MD5=[cc021f1cef0b492c3bce4583f556f0a2]
entity r15--><rect fill="#FFFFE0" filter="url(#f1bzoyts2t52md)" height="53.5999" rx="35" ry="35" style="stroke:#000000;stroke-width:1.5;" width="120" x="1210.98" y="28.5999"/><text fill="#000000" font-family="sans-serif" font-size="14" lengthAdjust="spacing" textLength="38" x="1251.98" y="52.5998">R1.05</text><text fill="#000000" font-family="sans-serif" font-size="14" lengthAdjust="spacing" textLength="96" x="1220.98" y="69.3997">Introduction BD</text><!--MD5=[62ab235c837744bff8eff6124a0b191a]
entity r16--><rect fill="#FFFFE0" filter="url(#f1bzoyts2t52md)" height="53.5999" rx="35" ry="35" style="stroke:#000000;stroke-width:1.5;" width="122" x="85.98" y="313.5999"/><text fill="#000000" font-family="sans-serif" font-size="14" lengthAdjust="spacing" textLength="38" x="127.98" y="337.5998">R1.06</text><text fill="#000000" font-family="sans-serif" font-size="14" lengthAdjust="spacing" textLength="98" x="95.98" y="354.3997">Maths discrètes</text><!--MD5=[8917ed62d460b8ee39da132cbaef447f]
entity r17--><rect fill="#FFFFE0" filter="url(#f1bzoyts2t52md)" height="53.5999" rx="35" ry="35" style="stroke:#000000;stroke-width:1.5;" width="152" x="242.98" y="313.5999"/><text fill="#000000" font-family="sans-serif" font-size="14" lengthAdjust="spacing" textLength="38" x="299.98" y="337.5998">R1.07</text><text fill="#000000" font-family="sans-serif" font-size="14" lengthAdjust="spacing" textLength="128" x="252.98" y="354.3997">Outils fondamentaux</text><!--MD5=[8f8e0e7a3acfde448c3dfdd334465ec7]
entity r18--><rect fill="#FFFFE0" filter="url(#f1bzoyts2t52md)" height="53.5999" rx="35" ry="35" style="stroke:#000000;stroke-width:1.5;" width="138" x="922.98" y="28.5999"/><text fill="#000000" font-family="sans-serif" font-size="14" lengthAdjust="spacing" textLength="38" x="972.98" y="52.5998">R1.08</text><text fill="#000000" font-family="sans-serif" font-size="14" lengthAdjust="spacing" textLength="114" x="932.98" y="69.3997">Gestion proj. orga.</text><!--MD5=[c188652b1ea8f8c223432d772372dc7b]
entity r19--><rect fill="#FFFFE0" filter="url(#f1bzoyts2t52md)" height="53.5999" rx="35" ry="35" style="stroke:#000000;stroke-width:1.5;" width="79" x="1096.48" y="28.5999"/><text fill="#000000" font-family="sans-serif" font-size="14" lengthAdjust="spacing" textLength="38" x="1116.98" y="52.5998">R1.09</text><text fill="#000000" font-family="sans-serif" font-size="14" lengthAdjust="spacing" textLength="59" x="1106.48" y="69.3997">Économie</text><!--MD5=[074acbed5e8b110780196068e5a2c82a]
entity r110--><rect fill="#FFFFE0" filter="url(#f1bzoyts2t52md)" height="53.5999" rx="35" ry="35" style="stroke:#000000;stroke-width:1.5;" width="130" x="22.98" y="28.5999"/><text fill="#000000" font-family="sans-serif" font-size="14" lengthAdjust="spacing" textLength="38" x="68.98" y="52.5998">R1.10</text><text fill="#000000" font-family="sans-serif" font-size="14" lengthAdjust="spacing" textLength="110" x="32.98" y="69.3997">Anglais technique</text><!--MD5=[71adfa3e2dfa04ee95d657fbffd12665]
entity r111--><rect fill="#FFFFE0" filter="url(#f1bzoyts2t52md)" height="53.5999" rx="35" ry="35" style="stroke:#000000;stroke-width:1.5;" width="136" x="574.98" y="28.5999"/><text fill="#000000" font-family="sans-serif" font-size="14" lengthAdjust="spacing" textLength="38" x="623.98" y="52.5998">R1.11</text><text fill="#000000" font-family="sans-serif" font-size="14" lengthAdjust="spacing" textLength="112" x="584.98" y="69.3997">Bases de la comm</text><!--MD5=[5505fae473b37b001fdb3d002aa5bc30]
entity sae11--><polygon fill="#87CEEB" filter="url(#f1bzoyts2t52md)" points="520.48,310.5999,530.48,300.5999,653.48,300.5999,653.48,370.9996,643.48,380.9996,520.48,380.9996,520.48,310.5999" style="stroke:#000000;stroke-width:1.5;"/><line style="stroke:#000000;stroke-width:1.5;" x1="643.48" x2="653.48" y1="310.5999" y2="300.5999"/><line style="stroke:#000000;stroke-width:1.5;" x1="520.48" x2="643.48" y1="310.5999" y2="310.5999"/><line style="stroke:#000000;stroke-width:1.5;" x1="643.48" x2="643.48" y1="310.5999" y2="380.9996"/><text fill="#000000" font-family="sans-serif" font-size="14" lengthAdjust="spacing" textLength="51" x="556.48" y="334.5998">SAE 1.1</text><text fill="#000000" font-family="sans-serif" font-size="14" lengthAdjust="spacing" textLength="93" x="535.48" y="351.3997">Implémentation</text><text fill="#000000" font-family="sans-serif" font-size="14" lengthAdjust="spacing" textLength="76" x="543.98" y="368.1997">besoin client</text><!--MD5=[f8350f3e21562befa4ae41ef93cbabd6]
entity sae12--><polygon fill="#87CEEB" filter="url(#f1bzoyts2t52md)" points="237.48,467.5999,247.48,457.5999,400.48,457.5999,400.48,511.1997,390.48,521.1997,237.48,521.1997,237.48,467.5999" style="stroke:#000000;stroke-width:1.5;"/><line style="stroke:#000000;stroke-width:1.5;" x1="390.48" x2="400.48" y1="467.5999" y2="457.5999"/><line style="stroke:#000000;stroke-width:1.5;" x1="237.48" x2="390.48" y1="467.5999" y2="467.5999"/><line style="stroke:#000000;stroke-width:1.5;" x1="390.48" x2="390.48" y1="467.5999" y2="521.1997"/><text fill="#000000" font-family="sans-serif" font-size="14" lengthAdjust="spacing" textLength="51" x="288.48" y="491.5998">SAE 1.2</text><text fill="#000000" font-family="sans-serif" font-size="14" lengthAdjust="spacing" textLength="123" x="252.48" y="508.3997">Comparaison d'algo</text><!--MD5=[9837f4b409915ab6344efab6d40991c3]
entity sae13--><polygon fill="#87CEEB" filter="url(#f1bzoyts2t52md)" points="506.98,169.5999,516.98,159.5999,650.98,159.5999,650.98,213.1997,640.98,223.1997,506.98,223.1997,506.98,169.5999" style="stroke:#000000;stroke-width:1.5;"/><line style="stroke:#000000;stroke-width:1.5;" x1="640.98" x2="650.98" y1="169.5999" y2="159.5999"/><line style="stroke:#000000;stroke-width:1.5;" x1="506.98" x2="640.98" y1="169.5999" y2="169.5999"/><line style="stroke:#000000;stroke-width:1.5;" x1="640.98" x2="640.98" y1="169.5999" y2="223.1997"/><text fill="#000000" font-family="sans-serif" font-size="14" lengthAdjust="spacing" textLength="51" x="548.48" y="193.5998">SAE 1.3</text><text fill="#000000" font-family="sans-serif" font-size="14" lengthAdjust="spacing" textLength="104" x="521.98" y="210.3997">Installation poste</text><!--MD5=[d7cdbd9003927e1cb2a773f82629afd6]
entity sae14--><polygon fill="#87CEEB" filter="url(#f1bzoyts2t52md)" points="1182.48,169.5999,1192.48,159.5999,1297.48,159.5999,1297.48,213.1997,1287.48,223.1997,1182.48,223.1997,1182.48,169.5999" style="stroke:#000000;stroke-width:1.5;"/><line style="stroke:#000000;stroke-width:1.5;" x1="1287.48" x2="1297.48" y1="169.5999" y2="159.5999"/><line style="stroke:#000000;stroke-width:1.5;" x1="1182.48" x2="1287.48" y1="169.5999" y2="169.5999"/><line style="stroke:#000000;stroke-width:1.5;" x1="1287.48" x2="1287.48" y1="169.5999" y2="223.1997"/><text fill="#000000" font-family="sans-serif" font-size="14" lengthAdjust="spacing" textLength="51" x="1209.48" y="193.5998">SAE 1.4</text><text fill="#000000" font-family="sans-serif" font-size="14" lengthAdjust="spacing" textLength="75" x="1197.48" y="210.3997">Création BD</text><!--MD5=[cbc102692a25a9d75da07bd812b0c4e3]
entity sae15--><polygon fill="#87CEEB" filter="url(#f1bzoyts2t52md)" points="711.98,169.5999,721.98,159.5999,847.98,159.5999,847.98,213.1997,837.98,223.1997,711.98,223.1997,711.98,169.5999" style="stroke:#000000;stroke-width:1.5;"/><line style="stroke:#000000;stroke-width:1.5;" x1="837.98" x2="847.98" y1="169.5999" y2="159.5999"/><line style="stroke:#000000;stroke-width:1.5;" x1="711.98" x2="837.98" y1="169.5999" y2="169.5999"/><line style="stroke:#000000;stroke-width:1.5;" x1="837.98" x2="837.98" y1="169.5999" y2="223.1997"/><text fill="#000000" font-family="sans-serif" font-size="14" lengthAdjust="spacing" textLength="51" x="749.48" y="193.5998">SAE 1.5</text><a href="https://jmbruel.github.io/antora-template/but/1.0/sae-1.5/master.html" target="_top" title="https://jmbruel.github.io/antora-template/but/1.0/sae-1.5/master.html" xlink:actuate="onRequest" xlink:href="https://jmbruel.github.io/antora-template/but/1.0/sae-1.5/master.html" xlink:show="new" xlink:title="https://jmbruel.github.io/antora-template/but/1.0/sae-1.5/master.html" xlink:type="simple"><text fill="#0000FF" font-family="sans-serif" font-size="14" lengthAdjust="spacing" text-decoration="underline" textLength="96" x="726.98" y="210.3997">Recueil besoins</text></a><!--MD5=[94ac2d62d2a83b25c4bf0a4c59f99025]
entity sae16--><polygon fill="#87CEEB" filter="url(#f1bzoyts2t52md)" points="896.48,169.5999,906.48,159.5999,1053.48,159.5999,1053.48,213.1997,1043.48,223.1997,896.48,223.1997,896.48,169.5999" style="stroke:#000000;stroke-width:1.5;"/><line style="stroke:#000000;stroke-width:1.5;" x1="1043.48" x2="1053.48" y1="169.5999" y2="159.5999"/><line style="stroke:#000000;stroke-width:1.5;" x1="896.48" x2="1043.48" y1="169.5999" y2="169.5999"/><line style="stroke:#000000;stroke-width:1.5;" x1="1043.48" x2="1043.48" y1="169.5999" y2="223.1997"/><text fill="#000000" font-family="sans-serif" font-size="14" lengthAdjust="spacing" textLength="51" x="944.48" y="193.5998">SAE 1.6</text><text fill="#000000" font-family="sans-serif" font-size="14" lengthAdjust="spacing" textLength="117" x="911.48" y="210.3997">Environnement éco</text><!--MD5=[cbf2a705c8c36a956106bd646f097c75]
entity r--><rect fill="#FFFFE0" filter="url(#f1bzoyts2t52md)" height="36.7999" rx="35" ry="35" style="stroke:#000000;stroke-width:1.5;" width="85" x="1366.48" y="37.0999"/><text fill="#000000" font-family="sans-serif" font-size="14" lengthAdjust="spacing" textLength="65" x="1376.48" y="61.0998">Ressource</text><!--MD5=[d8322213e5f4465576b8bf70cd9bce59]
entity s--><polygon fill="#87CEEB" filter="url(#f1bzoyts2t52md)" points="1375.48,178.0999,1385.48,168.0999,1442.48,168.0999,1442.48,204.8998,1432.48,214.8998,1375.48,214.8998,1375.48,178.0999" style="stroke:#000000;stroke-width:1.5;"/><line style="stroke:#000000;stroke-width:1.5;" x1="1432.48" x2="1442.48" y1="178.0999" y2="168.0999"/><line style="stroke:#000000;stroke-width:1.5;" x1="1375.48" x2="1432.48" y1="178.0999" y2="178.0999"/><line style="stroke:#000000;stroke-width:1.5;" x1="1432.48" x2="1432.48" y1="178.0999" y2="214.8998"/><text fill="#000000" font-family="sans-serif" font-size="14" lengthAdjust="spacing" textLength="27" x="1390.48" y="202.0998">SAÉ</text><!--MD5=[bc3f007aea2e9a35d24dd78be8a76800]
reverse link sae15 to sae11--><path d="M734.86,226.9699 C706.02,248.9299 668.54,277.4799 638.53,300.3299 " fill="none" id="sae15-backto-sae11" style="stroke:#000000;stroke-width:1.0;stroke-dasharray:7.0,7.0;"/><polygon fill="#000000" points="739.05,223.7699,729.464,226.0301,735.0689,226.7949,734.3041,232.3998,739.05,223.7699" style="stroke:#000000;stroke-width:1.0;"/><!--MD5=[882665abb3dd31801972e8044fc9f1e8]
reverse link sae11 to sae12--><path d="M546.02,384.7299 C529.96,399.8299 510.67,415.9099 490.98,427.5999 C463.19,444.0899 430.24,457.1299 400.65,466.8399 " fill="none" id="sae11-backto-sae12" style="stroke:#000000;stroke-width:1.0;stroke-dasharray:7.0,7.0;"/><polygon fill="#000000" points="550.03,380.9099,540.748,384.2028,546.4029,384.3514,546.2544,390.0063,550.03,380.9099" style="stroke:#000000;stroke-width:1.0;"/><!--MD5=[e22b674726aba1f5cf4c0ffba046556c]
link r11 to sae11--><path d="M446.5,218.7299 C460.54,229.3199 476.71,241.7999 490.98,253.5999 C507.51,267.2699 525.13,282.7699 540.69,296.7999 " fill="none" id="r11-to-sae11" style="stroke:#000000;stroke-width:1.0;"/><polygon fill="#000000" points="544.6,300.3299,540.6053,291.3275,540.8906,296.9772,535.241,297.2625,544.6,300.3299" style="stroke:#000000;stroke-width:1.0;"/><text fill="#000000" font-family="sans-serif" font-size="13" lengthAdjust="spacing" textLength="18" x="510.98" y="267.5999">2/2</text><!--MD5=[771e650061340fe56649b555a9a15e65]
link r11 to sae12--><path d="M416.77,218.8399 C423.77,256.1299 432.26,325.9799 411.98,380.5999 C401.57,408.6499 380.24,434.2999 360.63,453.5599 " fill="none" id="r11-to-sae12" style="stroke:#000000;stroke-width:1.0;"/><polygon fill="#000000" points="356.73,457.3299,365.9851,453.962,360.3292,453.8592,360.4321,448.2033,356.73,457.3299" style="stroke:#000000;stroke-width:1.0;"/><text fill="#000000" font-family="sans-serif" font-size="13" lengthAdjust="spacing" textLength="18" x="425.98" y="346.0999">2/2</text><!--MD5=[d83a422d616334b251cb6f8ae412ed6b]
link r12 to sae15--><path d="M797.42,82.6299 C791.69,91.6499 786.12,102.1399 782.98,112.5999 C779.02,125.7799 777.73,140.7699 777.61,154.0599 " fill="none" id="r12-to-sae15" style="stroke:#000000;stroke-width:1.0;"/><polygon fill="#000000" points="777.62,159.2599,781.5943,150.2485,777.6057,154.2599,773.5943,150.2713,777.62,159.2599" style="stroke:#000000;stroke-width:1.0;"/><text fill="#000000" font-family="sans-serif" font-size="13" lengthAdjust="spacing" textLength="18" x="783.98" y="126.5999">0/2</text><!--MD5=[47243e58f1a54596dcc96bd84e6fcd53]
link r12 to sae16--><path d="M847.82,82.7499 C872.56,103.7299 907.48,133.3499 934.47,156.2499 " fill="none" id="r12-to-sae16" style="stroke:#000000;stroke-width:1.0;"/><polygon fill="#000000" points="938.4,159.5699,934.1148,150.7021,934.5836,156.3395,928.9462,156.8083,938.4,159.5699" style="stroke:#000000;stroke-width:1.0;"/><text fill="#000000" font-family="sans-serif" font-size="13" lengthAdjust="spacing" textLength="18" x="901.98" y="126.5999">0/2</text><!--MD5=[e02f712c29f069960f6e1829a298cbc4]
link r13 to sae13--><path d="M387.68,82.4399 C425.18,103.6399 478.58,133.8299 519.43,156.9299 " fill="none" id="r13-to-sae13" style="stroke:#000000;stroke-width:1.0;"/><polygon fill="#000000" points="523.84,159.4299,517.9655,151.5248,519.4848,156.9738,514.0358,158.4931,523.84,159.4299" style="stroke:#000000;stroke-width:1.0;"/><text fill="#000000" font-family="sans-serif" font-size="13" lengthAdjust="spacing" textLength="18" x="468.98" y="126.5999">3/0</text><!--MD5=[e6e85c36fc7e19466c0dc99f80c65c76]
link r14 to sae13--><path d="M500.11,82.7499 C515.21,103.3999 536.43,132.4299 553.06,155.1599 " fill="none" id="r14-to-sae13" style="stroke:#000000;stroke-width:1.0;"/><polygon fill="#000000" points="556.11,159.3299,554.0089,149.7077,553.1513,155.2992,547.5599,154.4416,556.11,159.3299" style="stroke:#000000;stroke-width:1.0;"/><text fill="#000000" font-family="sans-serif" font-size="13" lengthAdjust="spacing" textLength="18" x="533.98" y="126.5999">2/0</text><!--MD5=[f70158d1e6576c4c52697264a68a4b20]
link r15 to sae14--><path d="M1264.93,82.7499 C1260.21,103.1499 1253.6,131.6999 1248.38,154.3099 " fill="none" id="r15-to-sae14" style="stroke:#000000;stroke-width:1.0;"/><polygon fill="#000000" points="1247.21,159.3299,1253.1161,151.4484,1248.3249,154.4557,1245.3175,149.6645,1247.21,159.3299" style="stroke:#000000;stroke-width:1.0;"/><text fill="#000000" font-family="sans-serif" font-size="13" lengthAdjust="spacing" textLength="18" x="1258.98" y="126.5999">2/2</text><!--MD5=[82db2c419d53366c6d726b11d8a72f30]
link r16 to sae12--><path d="M177.73,367.8799 C205.84,391.9099 247.61,427.6099 278.45,453.9599 " fill="none" id="r16-to-sae12" style="stroke:#000000;stroke-width:1.0;"/><polygon fill="#000000" points="282.53,457.4499,278.2999,448.5557,278.7337,454.1959,273.0935,454.6298,282.53,457.4499" style="stroke:#000000;stroke-width:1.0;"/><text fill="#000000" font-family="sans-serif" font-size="13" lengthAdjust="spacing" textLength="6" x="244.98" y="424.5999">x</text><!--MD5=[d9de3a0b9aeaae962593cac5878678f9]
link r17 to sae12--><path d="M318.98,367.8799 C318.98,391.4199 318.98,426.1599 318.98,452.3299 " fill="none" id="r17-to-sae12" style="stroke:#000000;stroke-width:1.0;"/><polygon fill="#000000" points="318.98,457.4499,322.98,448.4499,318.98,452.4499,314.98,448.4499,318.98,457.4499" style="stroke:#000000;stroke-width:1.0;"/><text fill="#000000" font-family="sans-serif" font-size="13" lengthAdjust="spacing" textLength="6" x="319.98" y="424.5999">x</text><!--MD5=[0280c8038c67eb650e301907d50360f7]
link r18 to sae15--><path d="M922.79,79.9199 C901.45,88.6099 878.46,99.5899 858.98,112.5999 C840.95,124.6399 823.52,141.1499 809.63,155.8899 " fill="none" id="r18-to-sae15" style="stroke:#000000;stroke-width:1.0;"/><polygon fill="#000000" points="806.18,159.5899,815.2456,155.7409,809.5921,155.9351,809.3979,150.2815,806.18,159.5899" style="stroke:#000000;stroke-width:1.0;"/><text fill="#000000" font-family="sans-serif" font-size="13" lengthAdjust="spacing" textLength="18" x="859.98" y="126.5999">4/0</text><!--MD5=[5c815fe65c1987dc8e52df82cef34889]
link r18 to sae16--><path d="M988.66,82.7499 C986.07,103.1499 982.45,131.6999 979.58,154.3099 " fill="none" id="r18-to-sae16" style="stroke:#000000;stroke-width:1.0;"/><polygon fill="#000000" points="978.95,159.3299,984.0504,150.9045,979.579,154.3696,976.1139,149.8982,978.95,159.3299" style="stroke:#000000;stroke-width:1.0;"/><text fill="#000000" font-family="sans-serif" font-size="13" lengthAdjust="spacing" textLength="6" x="985.98" y="126.5999">x</text><!--MD5=[2f5e44754ea22a4434289056cd6fcccf]
link r19 to sae14--><path d="M1156.28,82.7499 C1172.31,103.3999 1194.83,132.4299 1212.48,155.1599 " fill="none" id="r19-to-sae14" style="stroke:#000000;stroke-width:1.0;"/><polygon fill="#000000" points="1215.71,159.3299,1213.3731,149.7623,1212.6532,155.3731,1207.0423,154.6532,1215.71,159.3299" style="stroke:#000000;stroke-width:1.0;"/><text fill="#000000" font-family="sans-serif" font-size="13" lengthAdjust="spacing" textLength="18" x="1192.98" y="126.5999">2/0</text><!--MD5=[a01a34fbf7a4599f338c4cefb204b803]
link r19 to sae16--><path d="M1104.56,82.7499 C1079.35,103.7299 1043.76,133.3499 1016.26,156.2499 " fill="none" id="r19-to-sae16" style="stroke:#000000;stroke-width:1.0;"/><polygon fill="#000000" points="1012.26,159.5699,1021.7357,156.8846,1016.1023,156.3703,1016.6165,150.7369,1012.26,159.5699" style="stroke:#000000;stroke-width:1.0;"/><text fill="#000000" font-family="sans-serif" font-size="13" lengthAdjust="spacing" textLength="6" x="1066.98" y="126.5999">x</text><!--MD5=[127651c5b30928ef2d37f7fc9fa3ed32]
link r110 to sae12--><path d="M76.63,82.8099 C53.07,141.6599 6,286.4599 67.98,380.5999 C104.19,435.5999 174.93,462.7099 232.11,475.9999 " fill="none" id="r110-to-sae12" style="stroke:#000000;stroke-width:1.0;"/><polygon fill="#000000" points="237.24,477.1699,229.3548,471.2688,232.3652,476.0581,227.5759,479.0685,237.24,477.1699" style="stroke:#000000;stroke-width:1.0;"/><text fill="#000000" font-family="sans-serif" font-size="13" lengthAdjust="spacing" textLength="6" x="38.98" y="267.5999">x</text><!--MD5=[12af6f8472c7a84b986bee58814de1a1]
link r110 to sae13--><path d="M153.01,71.5999 C232.7,90.3799 371.6,124.3699 488.98,159.5999 C493.28,160.8899 497.68,162.2599 502.12,163.6699 " fill="none" id="r110-to-sae13" style="stroke:#000000;stroke-width:1.0;"/><polygon fill="#000000" points="506.93,165.2099,499.5851,158.6484,502.1697,163.6803,497.1378,166.2648,506.93,165.2099" style="stroke:#000000;stroke-width:1.0;"/><text fill="#000000" font-family="sans-serif" font-size="13" lengthAdjust="spacing" textLength="18" x="380.98" y="126.5999">0/2</text><!--MD5=[0df309e124857728dbc27e3cd88c7d0b]
link r111 to sae13--><path d="M616.65,82.6299 C608.97,91.4999 601.24,101.8899 595.98,112.5999 C589.61,125.5599 585.61,140.8999 583.11,154.5199 " fill="none" id="r111-to-sae13" style="stroke:#000000;stroke-width:1.0;"/><polygon fill="#000000" points="582.25,159.4599,587.7329,151.2783,583.1067,154.5338,579.8512,149.9076,582.25,159.4599" style="stroke:#000000;stroke-width:1.0;"/><text fill="#000000" font-family="sans-serif" font-size="13" lengthAdjust="spacing" textLength="18" x="596.98" y="126.5999">0/2</text><!--MD5=[5e68ba0ac68b96dff35ac5ddc6e8b70f]
link r111 to sae15--><path d="M645.43,82.9299 C647.99,97.9799 653.24,116.4099 663.98,129.5999 C675.47,143.7099 691.1,154.9599 707.17,163.7599 " fill="none" id="r111-to-sae15" style="stroke:#000000;stroke-width:1.0;"/><polygon fill="#000000" points="711.71,166.1699,705.6551,158.4021,707.2994,163.8147,701.8868,165.459,711.71,166.1699" style="stroke:#000000;stroke-width:1.0;"/><text fill="#000000" font-family="sans-serif" font-size="13" lengthAdjust="spacing" textLength="6" x="664.98" y="126.5999">x</text><!--MD5=[7099522ca0b4d66d5e87bf2dcad56c9e]
link r111 to sae16--><path d="M675.65,82.6699 C696.46,98.1899 724.59,117.2099 751.98,129.5999 C799.32,151.0199 814.86,145.8899 864.98,159.5999 C873.54,161.9399 882.46,164.4099 891.36,166.8899 " fill="none" id="r111-to-sae16" style="stroke:#000000;stroke-width:1.0;"/><polygon fill="#000000" points="896.31,168.2699,888.7156,161.9989,891.4938,166.9265,886.5662,169.7047,896.31,168.2699" style="stroke:#000000;stroke-width:1.0;"/><text fill="#000000" font-family="sans-serif" font-size="13" lengthAdjust="spacing" textLength="18" x="752.98" y="126.5999">0/4</text><!--MD5=[83f07c80460ebf22ea7152e1bc3b1282]
link r to s--><path d="M1408.98,74.1199 C1408.98,96.5999 1408.98,135.8699 1408.98,162.5399 " fill="none" id="r-to-s" style="stroke:#000000;stroke-width:1.0;"/><polygon fill="#000000" points="1408.98,167.6899,1412.98,158.6899,1408.98,162.6899,1404.98,158.6899,1408.98,167.6899" style="stroke:#000000;stroke-width:1.0;"/><text fill="#000000" font-family="sans-serif" font-size="13" lengthAdjust="spacing" textLength="38" x="1409.98" y="126.5999">TD/TP</text><!--MD5=[a228e4a9c1e1a0830e53a4ad932c7fa0]
@startuml
!define BLUE Skyblue
!define YELLOW Lightyellow
!define GREEN Lightgreen

skinparam defaultTextAlignment center

skinparam storage {
  BackgroundColor YELLOW
}

skinparam node {
  BackgroundColor BLUE
}

skinparam rectangle {
  BackgroundColor GREEN
  BorderColor Black
}

skinparam arrow {
    Color<<ac>> Black
}

skinparam package {
	BackgroundColor empty
	BorderColor DarkSlateGray
	ArrowColor Black
	FontColor Black
	FontSize 12
	FontName TrebuchetMS
}
skinparam roundcorner 10

skinparam class {
	BackgroundColor AliceBlue
	BorderColor DarkSlateGray
	ArrowColor Black
	FontColor Black
	FontSize 12
	FontName TrebuchetMS
}
skinparam arrow {
    MessageAlign center
}

'- - - - - - - - - - - Ressources
storage "R1.01\nInitiation au dev." as r11
storage "R1.02\nDev. interfaces web" as r12
storage "R1.03\nIntro. archi." as r13
storage "R1.04\nIntro. systèmes " as r14
storage "R1.05\nIntroduction BD " as r15
storage "R1.06\nMaths discrètes " as r16
storage "R1.07\nOutils fondamentaux " as r17
storage "R1.08\nGestion proj. orga. " as r18
storage "R1.09\nÉconomie" as r19
storage "R1.10\nAnglais technique" as r110
storage "R1.11\nBases de la comm " as r111

'- - - - - - - - - - - SAÉs
node "SAE 1.1\nImplémentation\nbesoin client" as sae11
node "SAE 1.2\nComparaison d'algo" as sae12
node "SAE 1.3\nInstallation poste" as sae13
node "SAE 1.4\nCréation BD" as sae14
node "SAE 1.5\n[[https://jmbruel.github.io/antora-template/but/1.0/sae-1.5/master.html Recueil besoins]]" as sae15
node "SAE 1.6\nEnvironnement éco" as sae16


'- - - - - - - - - - - Chronologie des SAÉ

sae15 <.. sae11
sae11 <.. sae12

'- - - - - - - - - - - Graphe
title Info - S1 v.0.1



r11 - -> sae11 : 2/2
r11 - -> sae12 : 2/2
r12 - -> sae15 : 0/2
r12 - -> sae16 : 0/2
r13 - -> sae13 : 3/0
r14 - -> sae13 : 2/0
r15 - -> sae14 : 2/2
r16 - -> sae12 : x
r17 - -> sae12 : x
r18 - -> sae15 : 4/0
r18 - -> sae16 : x
r19 - -> sae14 : 2/0
r19 - -> sae16 : x
r110 - -> sae12 : x
r110 - -> sae13 : 0/2
r111 - -> sae13 : 0/2
r111 - -> sae15 : x
r111 - -> sae16 : 0/4

'- - - Legend- - -
storage Ressource as r
node SAÉ as s
r - -> s : TD/TP

' Astuce cachée pour mettre la 14 à gauche de la 15
'sae14 -[hidden]> sae15
@enduml

@startuml

skinparam defaultTextAlignment center

skinparam storage {
  BackgroundColor Lightyellow
}

skinparam node {
  BackgroundColor Skyblue
}

skinparam rectangle {
  BackgroundColor Lightgreen
  BorderColor Black
}

skinparam arrow {
    Color<<ac>> Black
}

skinparam package {
	BackgroundColor empty
	BorderColor DarkSlateGray
	ArrowColor Black
	FontColor Black
	FontSize 12
	FontName TrebuchetMS
}
skinparam roundcorner 10

skinparam class {
	BackgroundColor AliceBlue
	BorderColor DarkSlateGray
	ArrowColor Black
	FontColor Black
	FontSize 12
	FontName TrebuchetMS
}
skinparam arrow {
    MessageAlign center
}

storage "R1.01\nInitiation au dev." as r11
storage "R1.02\nDev. interfaces web" as r12
storage "R1.03\nIntro. archi." as r13
storage "R1.04\nIntro. systèmes " as r14
storage "R1.05\nIntroduction BD " as r15
storage "R1.06\nMaths discrètes " as r16
storage "R1.07\nOutils fondamentaux " as r17
storage "R1.08\nGestion proj. orga. " as r18
storage "R1.09\nÉconomie" as r19
storage "R1.10\nAnglais technique" as r110
storage "R1.11\nBases de la comm " as r111

node "SAE 1.1\nImplémentation\nbesoin client" as sae11
node "SAE 1.2\nComparaison d'algo" as sae12
node "SAE 1.3\nInstallation poste" as sae13
node "SAE 1.4\nCréation BD" as sae14
node "SAE 1.5\n[[https://jmbruel.github.io/antora-template/but/1.0/sae-1.5/master.html Recueil besoins]]" as sae15
node "SAE 1.6\nEnvironnement éco" as sae16



sae15 <.. sae11
sae11 <.. sae12

title Info - S1 v.0.1



r11 - -> sae11 : 2/2
r11 - -> sae12 : 2/2
r12 - -> sae15 : 0/2
r12 - -> sae16 : 0/2
r13 - -> sae13 : 3/0
r14 - -> sae13 : 2/0
r15 - -> sae14 : 2/2
r16 - -> sae12 : x
r17 - -> sae12 : x
r18 - -> sae15 : 4/0
r18 - -> sae16 : x
r19 - -> sae14 : 2/0
r19 - -> sae16 : x
r110 - -> sae12 : x
r110 - -> sae13 : 0/2
r111 - -> sae13 : 0/2
r111 - -> sae15 : x
r111 - -> sae16 : 0/4

storage Ressource as r
node SAÉ as s
r - -> s : TD/TP

@enduml

PlantUML version 1.2021.8(Sat Jun 26 08:20:59 GMT 2021)
(GPL source distribution)
Java Runtime: OpenJDK Runtime Environment
JVM: OpenJDK 64-Bit Server VM
Default Encoding: UTF-8
Language: en
Country: US
--></g></svg>